<?xml version="1.0" standalone="no"?><!DOCTYPE svg PUBLIC "-//W3C//DTD SVG 1.1//EN" "http://www.w3.org/Graphics/SVG/1.1/DTD/svg11.dtd"><svg t="1651673351006" class="icon" viewBox="0 0 1024 1024" version="1.1" xmlns="http://www.w3.org/2000/svg" p-id="15474" xmlns:xlink="http://www.w3.org/1999/xlink" width="128" height="128"><defs><style type="text/css">@font-face { font-family: feedback-iconfont; src: url("//at.alicdn.com/t/font_1031158_u69w8yhxdu.woff2?t=1630033759944") format("woff2"), url("//at.alicdn.com/t/font_1031158_u69w8yhxdu.woff?t=1630033759944") format("woff"), url("//at.alicdn.com/t/font_1031158_u69w8yhxdu.ttf?t=1630033759944") format("truetype"); }
</style></defs><path d="M842.666667 864c-8.533333 0-14.933333-2.133333-21.333334-8.533333l-341.333333-309.333334c-6.4-6.4-10.666667-14.933333-10.666667-23.466666 0-8.533333 4.266667-17.066667 10.666667-23.466667l341.333333-309.333333c12.8-12.8 34.133333-10.666667 44.8 2.133333 12.8 12.8 10.666667 34.133333-2.133333 44.8L548.266667 522.666667l315.733333 285.866666c12.8 10.666667 14.933333 32 2.133333 44.8-6.4 6.4-14.933333 10.666667-23.466666 10.666667z" p-id="15475"></path><path d="M512 864c-8.533333 0-14.933333-2.133333-21.333333-8.533333L149.333333 546.133333c-6.4-6.4-10.666667-14.933333-10.666666-23.466666 0-8.533333 4.266667-17.066667 10.666666-23.466667L490.666667 189.866667c12.8-12.8 34.133333-10.666667 44.8 2.133333 12.8 12.8 10.666667 34.133333-2.133334 44.8L217.6 522.666667 533.333333 808.533333c12.8 12.8 14.933333 32 2.133334 44.8-6.4 6.4-14.933333 10.666667-23.466667 10.666667z" p-id="15476"></path></svg>