<?xml version="1.0" standalone="no"?><!DOCTYPE svg PUBLIC "-//W3C//DTD SVG 1.1//EN" "http://www.w3.org/Graphics/SVG/1.1/DTD/svg11.dtd"><svg t="1651673357039" class="icon" viewBox="0 0 1024 1024" version="1.1" xmlns="http://www.w3.org/2000/svg" p-id="15614" xmlns:xlink="http://www.w3.org/1999/xlink" width="128" height="128"><defs><style type="text/css">@font-face { font-family: feedback-iconfont; src: url("//at.alicdn.com/t/font_1031158_u69w8yhxdu.woff2?t=1630033759944") format("woff2"), url("//at.alicdn.com/t/font_1031158_u69w8yhxdu.woff?t=1630033759944") format("woff"), url("//at.alicdn.com/t/font_1031158_u69w8yhxdu.ttf?t=1630033759944") format("truetype"); }
</style></defs><path d="M791.893333 0H232.106667C105.813333 0 0 105.813333 0 232.106667v559.786666C0 918.186667 105.813333 1024 232.106667 1024h559.786666c129.706667 0 232.106667-105.813333 232.106667-232.106667V232.106667C1024 105.813333 918.186667 0 791.893333 0zM716.8 699.733333c0 10.24-6.826667 17.066667-17.066667 17.066667h-375.466666c-10.24 0-17.066667-6.826667-17.066667-17.066667v-375.466666c0-10.24 6.826667-17.066667 17.066667-17.066667h375.466666c10.24 0 17.066667 6.826667 17.066667 17.066667v375.466666z" p-id="15615"></path></svg>