<?xml version="1.0" standalone="no"?><!DOCTYPE svg PUBLIC "-//W3C//DTD SVG 1.1//EN" "http://www.w3.org/Graphics/SVG/1.1/DTD/svg11.dtd"><svg t="1648696981138" class="icon" viewBox="0 0 1024 1024" version="1.1" xmlns="http://www.w3.org/2000/svg" p-id="11884" xmlns:xlink="http://www.w3.org/1999/xlink" width="128" height="128"><defs><style type="text/css">@font-face { font-family: feedback-iconfont; src: url("//at.alicdn.com/t/font_1031158_u69w8yhxdu.woff2?t=1630033759944") format("woff2"), url("//at.alicdn.com/t/font_1031158_u69w8yhxdu.woff?t=1630033759944") format("woff"), url("//at.alicdn.com/t/font_1031158_u69w8yhxdu.ttf?t=1630033759944") format("truetype"); }
</style></defs><path d="M791.272727 162.909091h-74.472727l-76.8-76.8c-4.654545-4.654545-11.636364-6.981818-18.618182-6.981818H232.727273c-39.563636 0-69.818182 32.581818-69.818182 69.818182V791.272727c0 39.563636 32.581818 69.818182 69.818182 69.818182h13.963636v13.963636c0 39.563636 32.581818 69.818182 69.818182 69.818182H791.272727c39.563636 0 69.818182-32.581818 69.818182-69.818182V232.727273c0-39.563636-30.254545-69.818182-69.818182-69.818182z m-144.290909 9.309091l32.581818 32.581818h-18.618181c-9.309091 0-13.963636-6.981818-13.963637-13.963636v-18.618182zM218.763636 791.272727V146.618182c0-6.981818 6.981818-13.963636 13.963637-13.963637h358.4v58.181819c0 39.563636 32.581818 69.818182 69.818182 69.818181h58.181818V791.272727c0 6.981818-6.981818 13.963636-13.963637 13.963637H232.727273c-6.981818 0-13.963636-6.981818-13.963637-13.963637z m586.472728 86.109091c0 6.981818-6.981818 13.963636-13.963637 13.963637H318.836364c-6.981818 0-13.963636-6.981818-13.963637-13.963637V861.090909h400.290909c39.563636 0 69.818182-32.581818 69.818182-69.818182V232.727273c0-4.654545-2.327273-9.309091-4.654545-13.963637h20.945454c9.309091 0 13.963636 6.981818 13.963637 13.963637v644.654545z" p-id="11885"></path><path d="M467.781818 290.909091c-109.381818 0-197.818182 88.436364-197.818182 197.818182s88.436364 197.818182 197.818182 197.818182 197.818182-88.436364 197.818182-197.818182-88.436364-197.818182-197.818182-197.818182z m0 339.781818c-79.127273 0-141.963636-62.836364-141.963636-141.963636s62.836364-141.963636 141.963636-141.963637 141.963636 62.836364 141.963637 141.963637-62.836364 141.963636-141.963637 141.963636z" p-id="11886"></path><path d="M537.6 418.909091c-11.636364-11.636364-27.927273-11.636364-39.563636 0l-30.254546 30.254545-27.927273-30.254545c-11.636364-11.636364-27.927273-11.636364-39.563636 0s-11.636364 27.927273 0 39.563636l30.254546 30.254546-30.254546 30.254545c-11.636364 11.636364-11.636364 27.927273 0 39.563637 4.654545 4.654545 11.636364 9.309091 18.618182 9.30909s13.963636-2.327273 18.618182-9.30909l30.254545-30.254546 30.254546 30.254546c4.654545 4.654545 11.636364 9.309091 18.618181 9.30909s13.963636-2.327273 18.618182-9.30909c11.636364-11.636364 11.636364-27.927273 0-39.563637L507.345455 488.727273l30.254545-30.254546c11.636364-9.309091 11.636364-27.927273 0-39.563636z" p-id="11887"></path></svg>