<?xml version="1.0" standalone="no"?><!DOCTYPE svg PUBLIC "-//W3C//DTD SVG 1.1//EN" "http://www.w3.org/Graphics/SVG/1.1/DTD/svg11.dtd"><svg t="1652183236090" class="icon" viewBox="0 0 1024 1024" version="1.1" xmlns="http://www.w3.org/2000/svg" p-id="25788" xmlns:xlink="http://www.w3.org/1999/xlink" width="128" height="128"><defs><style type="text/css">@font-face { font-family: feedback-iconfont; src: url("//at.alicdn.com/t/font_1031158_u69w8yhxdu.woff2?t=1630033759944") format("woff2"), url("//at.alicdn.com/t/font_1031158_u69w8yhxdu.woff?t=1630033759944") format("woff"), url("//at.alicdn.com/t/font_1031158_u69w8yhxdu.ttf?t=1630033759944") format("truetype"); }
</style></defs><path d="M170.666667 298.666667v426.666666c0 92.501333 156.288 170.666667 341.333333 170.666667s341.333333-78.165333 341.333333-170.666667V298.666667c0-92.501333-156.288-170.666667-341.333333-170.666667S170.666667 206.165333 170.666667 298.666667z m597.333333 426.410666c-2.944 21.290667-98.517333 85.589333-256 85.589334s-253.056-64.298667-256-85.333334v-102.101333C319.104 659.370667 411.178667 682.666667 512 682.666667s192.896-23.296 256-59.434667v101.845333z m0-213.333333c-2.944 21.290667-98.517333 85.589333-256 85.589333s-253.056-64.298667-256-85.333333V409.898667C319.104 446.037333 411.178667 469.333333 512 469.333333s192.896-23.296 256-59.434666v101.845333z m0-213.333333C765.056 319.701333 669.482667 384 512 384S258.944 319.701333 256 298.922667C258.944 277.632 354.517333 213.333333 512 213.333333s253.056 64.298667 256 85.077334z" p-id="25789"></path></svg>