<?xml version="1.0" standalone="no"?><!DOCTYPE svg PUBLIC "-//W3C//DTD SVG 1.1//EN" "http://www.w3.org/Graphics/SVG/1.1/DTD/svg11.dtd"><svg t="1649671781629" class="icon" viewBox="0 0 1024 1024" version="1.1" xmlns="http://www.w3.org/2000/svg" p-id="20278" xmlns:xlink="http://www.w3.org/1999/xlink" width="128" height="128"><defs><style type="text/css">@font-face { font-family: feedback-iconfont; src: url("//at.alicdn.com/t/font_1031158_u69w8yhxdu.woff2?t=1630033759944") format("woff2"), url("//at.alicdn.com/t/font_1031158_u69w8yhxdu.woff?t=1630033759944") format("woff"), url("//at.alicdn.com/t/font_1031158_u69w8yhxdu.ttf?t=1630033759944") format("truetype"); }
</style></defs><path d="M298.668572 725.331428H469.331428a42.668572 42.668572 0 1 1 0 85.337144H298.668572a42.668572 42.668572 0 0 1 0-85.337144z m0-256h298.668572a42.668572 42.668572 0 0 1 0 85.337144H298.668572a42.668572 42.668572 0 0 1 0-85.337144z m0-256h426.662856a42.668572 42.668572 0 0 1 0 85.337144H298.668572a42.668572 42.668572 0 0 1 0-85.337144z m-85.337144-128.051449a128.051449 128.051449 0 0 0-128.051449 128.051449v597.337144a128.051449 128.051449 0 0 0 128.051449 128.051449h597.337144a128.051449 128.051449 0 0 0 128.051449-128.051449V213.331428a128.051449 128.051449 0 0 0-128.051449-128.051449zM170.662856 0h682.674288a170.662856 170.662856 0 0 1 170.662856 170.662856v682.674288a170.662856 170.662856 0 0 1-170.662856 170.662856h-682.674288A170.662856 170.662856 0 0 1 0 853.337144v-682.674288A170.662856 170.662856 0 0 1 170.662856 0z" p-id="20279"></path></svg>