<?xml version="1.0" standalone="no"?><!DOCTYPE svg PUBLIC "-//W3C//DTD SVG 1.1//EN" "http://www.w3.org/Graphics/SVG/1.1/DTD/svg11.dtd"><svg t="1652179086641" class="icon" viewBox="0 0 1024 1024" version="1.1" xmlns="http://www.w3.org/2000/svg" p-id="14490" xmlns:xlink="http://www.w3.org/1999/xlink" width="128" height="128"><defs><style type="text/css">@font-face { font-family: feedback-iconfont; src: url("//at.alicdn.com/t/font_1031158_u69w8yhxdu.woff2?t=1630033759944") format("woff2"), url("//at.alicdn.com/t/font_1031158_u69w8yhxdu.woff?t=1630033759944") format("woff"), url("//at.alicdn.com/t/font_1031158_u69w8yhxdu.ttf?t=1630033759944") format("truetype"); }
</style></defs><path d="M345.48608 211.641211l235.772818 0 0 46.832631L345.48608 258.473843 345.48608 211.641211 345.48608 211.641211zM345.48608 211.641211" p-id="14491"></path><path d="M907.252531 431.556876c-21.666462 0-74.194816 0.213871-74.194816 0.213871l0 93.912903-94.118588 0 0-49.563836-138.78795-138.954749-65.895803 0 0-78.68406L392.755664 258.481006l0 78.68406-64.510246 0 0 84.825944-124.704187 40.561811c0 0-0.13303 35.94977-0.274246 79.299067l-78.167291 0 0-78.67485L62.385351 463.177038l0 220.181725 62.715367 0 0-78.56024 77.979002 0c-0.076748 27.867698-0.127913 53.359278-0.127913 69.208245 0 52.639894 55.504128 55.863309 96.426143 55.863309 40.930201 0 97.55792 79.465866 114.406656 79.465866l282.431487 0c25.281803 0 43.147706-27.192316 43.147706-52.324716l0-42.066071 93.912903 0 0 94.117564c0 0 54.4184 0.346901 80.912821 0.346901 33.215496 0 44.515866-29.825282 44.515866-53.410444l0-269.334191C958.704366 459.143165 928.927179 431.556876 907.252531 431.556876L907.252531 431.556876zM907.252531 431.556876" p-id="14492"></path></svg>