<?xml version="1.0" standalone="no"?><!DOCTYPE svg PUBLIC "-//W3C//DTD SVG 1.1//EN" "http://www.w3.org/Graphics/SVG/1.1/DTD/svg11.dtd"><svg t="1649665369022" class="icon" viewBox="0 0 1024 1024" version="1.1" xmlns="http://www.w3.org/2000/svg" p-id="12375" xmlns:xlink="http://www.w3.org/1999/xlink" width="128" height="128"><defs><style type="text/css">@font-face { font-family: feedback-iconfont; src: url("//at.alicdn.com/t/font_1031158_u69w8yhxdu.woff2?t=1630033759944") format("woff2"), url("//at.alicdn.com/t/font_1031158_u69w8yhxdu.woff?t=1630033759944") format("woff"), url("//at.alicdn.com/t/font_1031158_u69w8yhxdu.ttf?t=1630033759944") format("truetype"); }
</style></defs><path d="M512 0a512 512 0 1 0 512 512A512 512 0 0 0 512 0z m0 921.6a409.6 409.6 0 1 1 409.6-409.6 409.6 409.6 0 0 1-409.6 409.6z" p-id="12376"></path><path d="M285.696 536.576h133.12V473.088h-133.12v-87.04h156.16V322.56H209.92v378.88h237.568v-63.488H285.696v-101.376zM742.4 322.56v153.6c0 43.008 6.144 93.184 9.728 132.608h-2.56l-37.888-81.92-109.568-204.288h-77.312v378.88h71.68v-153.6c0-43.52-5.632-91.136-9.216-132.096l38.4 81.408 109.568 204.8h76.8V322.56z" p-id="12377"></path></svg>