<?xml version="1.0" standalone="no"?><!DOCTYPE svg PUBLIC "-//W3C//DTD SVG 1.1//EN" "http://www.w3.org/Graphics/SVG/1.1/DTD/svg11.dtd"><svg t="1652183226559" class="icon" viewBox="0 0 1024 1024" version="1.1" xmlns="http://www.w3.org/2000/svg" p-id="25509" xmlns:xlink="http://www.w3.org/1999/xlink" width="128" height="128"><defs><style type="text/css">@font-face { font-family: feedback-iconfont; src: url("//at.alicdn.com/t/font_1031158_u69w8yhxdu.woff2?t=1630033759944") format("woff2"), url("//at.alicdn.com/t/font_1031158_u69w8yhxdu.woff?t=1630033759944") format("woff"), url("//at.alicdn.com/t/font_1031158_u69w8yhxdu.ttf?t=1630033759944") format("truetype"); }
</style></defs><path d="M1024 285.866667 0 285.866667 0 55.466667l1024 0L1024 285.866667zM853.333333 115.2l-226.133333 0 0 115.2L853.333333 230.4 853.333333 115.2zM1024 627.2 0 627.2 0 396.8l1024 0L1024 627.2zM853.333333 456.533333l-226.133333 0 0 115.2L853.333333 571.733333 853.333333 456.533333zM1024 968.533333 0 968.533333l0-226.133333 1024 0L1024 968.533333zM853.333333 797.866667l-226.133333 0 0 115.2L853.333333 913.066667 853.333333 797.866667z" p-id="25510"></path></svg>