<?xml version="1.0" standalone="no"?><!DOCTYPE svg PUBLIC "-//W3C//DTD SVG 1.1//EN" "http://www.w3.org/Graphics/SVG/1.1/DTD/svg11.dtd"><svg t="1648887420681" class="icon" viewBox="0 0 1024 1024" version="1.1" xmlns="http://www.w3.org/2000/svg" p-id="6771" xmlns:xlink="http://www.w3.org/1999/xlink" width="128" height="128"><defs><style type="text/css">@font-face { font-family: feedback-iconfont; src: url("//at.alicdn.com/t/font_1031158_u69w8yhxdu.woff2?t=1630033759944") format("woff2"), url("//at.alicdn.com/t/font_1031158_u69w8yhxdu.woff?t=1630033759944") format("woff"), url("//at.alicdn.com/t/font_1031158_u69w8yhxdu.ttf?t=1630033759944") format("truetype"); }
</style></defs><path d="M994.489288 188.508159L517.494946 387.06722 39.292616 188.507159 516.377957 0zM0.009 271.077353l475.968352 203.030017V1023.99q-56.784445-25.59975-117.851849-53.526477-52.409488-23.365772-118.410844-52.409488l-132.745704-58.089433a165.979379 165.979379 0 0 1-43.659573-29.508712 218.295868 218.295868 0 0 1-33.79167-40.121608 185.435189 185.435189 0 0 1-21.875787-46.545546 160.76643 160.76643 0 0 1-7.633925-47.754533V271.077353z m1023.99 0v422.722872a150.619529 150.619529 0 0 1-10.891894 55.853454 249.015568 249.015568 0 0 1-27.927727 51.292499 244.267615 244.267615 0 0 1-37.235636 42.356587 195.488091 195.488091 0 0 1-40.400606 28.484721L786.525319 923.080986q-63.300382 26.809738-116.827859 49.15152-62.742387 27.182735-122.785801 51.758494V474.10737z m0 0" p-id="6772"></path></svg>