<?xml version="1.0" standalone="no"?><!DOCTYPE svg PUBLIC "-//W3C//DTD SVG 1.1//EN" "http://www.w3.org/Graphics/SVG/1.1/DTD/svg11.dtd"><svg t="1651136677659" class="icon" viewBox="0 0 1024 1024" version="1.1" xmlns="http://www.w3.org/2000/svg" p-id="15084" xmlns:xlink="http://www.w3.org/1999/xlink" width="128" height="128"><defs><style type="text/css">@font-face { font-family: feedback-iconfont; src: url("//at.alicdn.com/t/font_1031158_u69w8yhxdu.woff2?t=1630033759944") format("woff2"), url("//at.alicdn.com/t/font_1031158_u69w8yhxdu.woff?t=1630033759944") format("woff"), url("//at.alicdn.com/t/font_1031158_u69w8yhxdu.ttf?t=1630033759944") format("truetype"); }
</style></defs><path d="M918.457 862.043H105.543c-20.435 0-37-16.565-37-37V198.957c0-20.435 16.565-37 37-37h812.913c20.435 0 37 16.565 37 37v626.087c0.001 20.434-16.565 36.999-36.999 36.999z m-775.914-74h738.913V235.957H142.543v552.086z" p-id="15085"></path><path d="M155.696 826.143l-55.391-49.069L316.609 532.9c12.337-13.926 33.096-16.526 48.486-6.072l95.808 65.08 182.756-233.7a36.996 36.996 0 0 1 27.779-14.182 37.005 37.005 0 0 1 28.751 12.093L945.84 626.466l-54.768 49.765-216.147-237.879L497.88 664.749c-11.996 15.339-33.828 18.756-49.937 7.814l-97.517-66.241-194.73 219.821z" p-id="15086"></path><path d="M331.174 373m-55 0a55 55 0 1 0 110 0 55 55 0 1 0-110 0Z" p-id="15087"></path></svg>