<?xml version="1.0" standalone="no"?><!DOCTYPE svg PUBLIC "-//W3C//DTD SVG 1.1//EN" "http://www.w3.org/Graphics/SVG/1.1/DTD/svg11.dtd"><svg t="1653299815787" class="icon" viewBox="0 0 1024 1024" version="1.1" xmlns="http://www.w3.org/2000/svg" p-id="10601" xmlns:xlink="http://www.w3.org/1999/xlink" width="128" height="128"><defs><style type="text/css">@font-face { font-family: feedback-iconfont; src: url("//at.alicdn.com/t/font_1031158_u69w8yhxdu.woff2?t=1630033759944") format("woff2"), url("//at.alicdn.com/t/font_1031158_u69w8yhxdu.woff?t=1630033759944") format("woff"), url("//at.alicdn.com/t/font_1031158_u69w8yhxdu.ttf?t=1630033759944") format("truetype"); }
</style></defs><path d="M320 725.333333c-93.866667 0-170.666667-76.8-170.666667-170.666666s76.8-170.666667 170.666667-170.666667 170.666667 76.8 170.666667 170.666667-76.8 170.666667-170.666667 170.666666z m0-298.666666c-70.4 0-128 57.6-128 128s57.6 128 128 128 128-57.6 128-128-57.6-128-128-128z" p-id="10602"></path><path d="M533.333333 936.533333c-12.8 0-21.333333-8.533333-21.333333-21.333333 0-104.533333-85.333333-192-192-192s-192 85.333333-192 192c0 12.8-8.533333 21.333333-21.333333 21.333333s-21.333333-8.533333-21.333334-21.333333c0-130.133333 104.533333-234.666667 234.666667-234.666667s234.666667 104.533333 234.666667 234.666667c0 12.8-8.533333 21.333333-21.333334 21.333333z" p-id="10603"></path><path d="M533.333333 938.666667c-4.266667 0-6.4 0-10.666666-2.133334-10.666667-6.4-12.8-19.2-8.533334-29.866666l149.333334-258.133334c6.4-10.666667 19.2-12.8 29.866666-8.533333 10.666667 6.4 12.8 19.2 8.533334 29.866667l-149.333334 258.133333c-4.266667 6.4-12.8 10.666667-19.2 10.666667z" p-id="10604"></path><path d="M874.666667 938.666667h-170.666667c-12.8 0-21.333333-8.533333-21.333333-21.333334s8.533333-21.333333 21.333333-21.333333h170.666667c12.8 0 21.333333-8.533333 21.333333-21.333333V149.333333c0-12.8-8.533333-21.333333-21.333333-21.333333H149.333333c-12.8 0-21.333333 8.533333-21.333333 21.333333v213.333334c0 12.8-8.533333 21.333333-21.333333 21.333333s-21.333333-8.533333-21.333334-21.333333V149.333333c0-36.266667 27.733333-64 64-64h725.333334c36.266667 0 64 27.733333 64 64v725.333334c0 36.266667-27.733333 64-64 64z" p-id="10605"></path><path d="M789.333333 298.666667H448c-12.8 0-21.333333-8.533333-21.333333-21.333334s8.533333-21.333333 21.333333-21.333333h341.333333c12.8 0 21.333333 8.533333 21.333334 21.333333s-8.533333 21.333333-21.333334 21.333334zM789.333333 469.333333H576c-12.8 0-21.333333-8.533333-21.333333-21.333333s8.533333-21.333333 21.333333-21.333333h213.333333c12.8 0 21.333333 8.533333 21.333334 21.333333s-8.533333 21.333333-21.333334 21.333333z" p-id="10606"></path></svg>