<?xml version="1.0" standalone="no"?><!DOCTYPE svg PUBLIC "-//W3C//DTD SVG 1.1//EN" "http://www.w3.org/Graphics/SVG/1.1/DTD/svg11.dtd"><svg t="1651673361076" class="icon" viewBox="0 0 1024 1024" version="1.1" xmlns="http://www.w3.org/2000/svg" p-id="15753" xmlns:xlink="http://www.w3.org/1999/xlink" width="128" height="128"><defs><style type="text/css">@font-face { font-family: feedback-iconfont; src: url("//at.alicdn.com/t/font_1031158_u69w8yhxdu.woff2?t=1630033759944") format("woff2"), url("//at.alicdn.com/t/font_1031158_u69w8yhxdu.woff?t=1630033759944") format("woff"), url("//at.alicdn.com/t/font_1031158_u69w8yhxdu.ttf?t=1630033759944") format("truetype"); }
</style></defs><path d="M288.667004 243.924475l0 536.193005 446.750927 0c0 0 0-208.782094 0-357.448018L556.716946 422.669462l0-44.673455L556.716946 244.01248" p-id="15754"></path><path d="M601.304444 243.924475l0 134.071532 134.113487 0C646.329916 289.341874 690.482509 333.449441 601.304444 243.924475z" p-id="15755"></path><path d="M780.093433 65.267493 243.991502 65.267493c-98.774631 0-178.700985 80.013335-178.700985 178.744987l0 536.105001c0 98.642624 79.925331 178.61298 178.700985 178.61298l536.102954 0c98.600669 0 178.615027-79.969333 178.615027-178.61298L958.709483 244.01248C958.70846 145.280828 878.695125 65.267493 780.093433 65.267493zM869.357456 735.353974c0 74.124208-59.945277 134.069485-133.939525 134.069485L288.667004 869.423459c-73.994248 0-134.115534-59.945277-134.115534-134.069485L154.55147 288.687982c0-74.03825 60.121286-134.069485 134.115534-134.069485l446.750927 0c73.994248 0 133.939525 60.031235 133.939525 134.069485L869.357456 735.353974z" p-id="15756"></path></svg>