<?xml version="1.0" standalone="no"?><!DOCTYPE svg PUBLIC "-//W3C//DTD SVG 1.1//EN" "http://www.w3.org/Graphics/SVG/1.1/DTD/svg11.dtd"><svg t="1651133610582" class="icon" viewBox="0 0 1024 1024" version="1.1" xmlns="http://www.w3.org/2000/svg" p-id="6118" xmlns:xlink="http://www.w3.org/1999/xlink" width="128" height="128"><defs><style type="text/css">@font-face { font-family: feedback-iconfont; src: url("//at.alicdn.com/t/font_1031158_u69w8yhxdu.woff2?t=1630033759944") format("woff2"), url("//at.alicdn.com/t/font_1031158_u69w8yhxdu.woff?t=1630033759944") format("woff"), url("//at.alicdn.com/t/font_1031158_u69w8yhxdu.ttf?t=1630033759944") format("truetype"); }
</style></defs><path d="M696.36 148.67H96v726.65h831.99V148.67H696.36z m-88.01 24.18V225h-192.7v-52.15h192.7z m219.63 218.58v70.76h-47.07V329.85h-84.55v-80.68h131.61v142.26z m-71.25 94.94v183.52H267.27V354.03h489.46v132.34z m71.25 121.94v166.43H696.36v-80.68h84.55V561.72h47.07v46.59z m-631.96 24.18v-70.76h47.07v132.34h84.54v80.68H196.02V632.49z m155.8 61.58h320.37v80.68H351.82v-80.68z m-155.8-278.46V249.18h131.61v80.68h-84.54V462.2h-47.07v-46.59z m476.16-85.76H351.81v-80.68h320.37v80.68z m-552-157h271.29V225H171.85v166.43h-51.66V172.85z m0 242.76h51.66v70.76h71.25v51.18h-71.25v70.76h-51.66v-192.7z m231.64 435.54H120.19V632.49h51.66v166.43h219.62v52.23h-39.65z m63.83 0v-52.23h192.7v52.23h-192.7z m488.17 0H632.53v-52.23h219.62V632.49h51.66v218.66z m0-242.84h-51.66v-70.76h-71.25v-51.18h71.25v-70.76h51.66v192.7z m-51.66-216.88V225H632.54v-52.15h271.29v218.58h-51.67z" p-id="6119"></path></svg>