<?xml version="1.0" standalone="no"?><!DOCTYPE svg PUBLIC "-//W3C//DTD SVG 1.1//EN" "http://www.w3.org/Graphics/SVG/1.1/DTD/svg11.dtd"><svg t="1652183239952" class="icon" viewBox="0 0 1024 1024" version="1.1" xmlns="http://www.w3.org/2000/svg" p-id="25927" xmlns:xlink="http://www.w3.org/1999/xlink" width="128" height="128"><defs><style type="text/css">@font-face { font-family: feedback-iconfont; src: url("//at.alicdn.com/t/font_1031158_u69w8yhxdu.woff2?t=1630033759944") format("woff2"), url("//at.alicdn.com/t/font_1031158_u69w8yhxdu.woff?t=1630033759944") format("woff"), url("//at.alicdn.com/t/font_1031158_u69w8yhxdu.ttf?t=1630033759944") format("truetype"); }
</style></defs><path d="M434.571947 848.387413c26.668373-64.453973 77.370027-118.391467 144.09728-150.674773-32.0512-34.914987-48.073387-83.469653-48.073387-131.904853 0-110.373547 88.128853-201.857707 197.553493-201.857707 48.073387 0 88.128853 5.379413 122.80832 37.67296V59.8528C850.957653 8.792747 843.062613 3.413333 792.23808 3.413333H101.055147C50.346667 3.413333 39.707307 16.807253 39.707307 68.10624v896.037547c0 51.063467 5.379413 56.44288 56.087893 56.44288h458.9568c-26.668373-10.76224-53.4528-24.152747-77.366613-40.301227-42.81344-26.903893-61.586773-88.849067-42.81344-131.898027zM178.428587 229.53984c0-16.141653 13.274453-26.907307 26.66496-26.907307h253.641386c16.022187 0 26.668373 13.39392 26.668374 26.907307v26.91072c0 16.141653-13.274453 26.903893-26.668374 26.903893H207.725227c-16.022187 0-26.668373-13.390507-26.668374-26.903893v-26.91072h-2.628266z m178.773333 487.062187c0 8.01792-2.63168 13.39392-7.89504 18.773333-5.379413 5.382827-21.405013 2.63168-29.29664 2.63168H207.960747c-7.89504 0-18.65728 2.63168-23.917227-2.63168-5.379413-5.379413-7.891627-13.39392-7.891627-18.773333v-37.666134c0-8.014507 2.63168-13.39392 7.891627-18.776746 5.379413-5.376 16.0256-5.376 23.917227-5.376h112.04608c7.89504 0 24.036693 0 29.29664 5.376 5.382827 5.382827 7.89504 13.397333 7.89504 18.776746v37.666134h0.003413z m0-231.509334c0 8.014507-2.63168 13.39392-7.89504 18.773334-5.379413 5.379413-13.27104 8.014507-18.650453 8.014506H202.461867c-8.014507 0-13.277867-2.63168-18.65728-8.014506-5.376-5.379413-7.89504-13.39392-7.89504-18.773334v-37.666133c0-8.014507 2.63168-13.39392 7.89504-18.773333 5.382827-5.382827 16.0256 0 23.92064 0h112.042666c7.89504 0 24.036693-5.382827 29.29664 0 5.382827 5.379413 7.89504 13.39392 7.89504 18.773333v37.666133h0.242347zM979.032747 845.755733c-29.300053-67.324587-93.392213-115.759787-168.137387-134.53312 42.69056-26.907307 69.474987-75.33568 69.474987-129.150293 0-83.46624-66.720427-150.674773-149.47328-150.674773s-149.480107 67.328-149.480107 150.674773c0 56.44288 29.293227 104.997547 74.61888 131.908267-74.61888 21.521067-133.464747 72.704-162.757973 137.157973-10.63936 26.907307 0 64.69632 26.668373 80.72192 64.088747 40.297813 136.20224 61.822293 213.568853 61.822293 80.001707 0 154.866347-24.15616 221.586774-67.331413 23.93088-16.13824 37.205333-56.439467 23.93088-80.595627z" p-id="25928"></path></svg>