<?xml version="1.0" standalone="no"?><!DOCTYPE svg PUBLIC "-//W3C//DTD SVG 1.1//EN" "http://www.w3.org/Graphics/SVG/1.1/DTD/svg11.dtd"><svg t="1648088814241" class="icon" viewBox="0 0 1024 1024" version="1.1" xmlns="http://www.w3.org/2000/svg" p-id="13165" xmlns:xlink="http://www.w3.org/1999/xlink" width="128" height="128"><defs><style type="text/css">@font-face { font-family: feedback-iconfont; src: url("//at.alicdn.com/t/font_1031158_u69w8yhxdu.woff2?t=1630033759944") format("woff2"), url("//at.alicdn.com/t/font_1031158_u69w8yhxdu.woff?t=1630033759944") format("woff"), url("//at.alicdn.com/t/font_1031158_u69w8yhxdu.ttf?t=1630033759944") format("truetype"); }
</style></defs><path d="M241.742848 417.713152l326.656 44.032 40.96 317.44 241.664-605.184-609.28 243.712z m-132.096 48.128c-7.508992-0.683008-13.824-3.584-18.944-8.704s-8.192-11.606016-9.216-19.456c-1.024-7.851008 0.342016-14.848 4.096-20.992 3.755008-6.144 9.046016-10.582016 15.872-13.312l796.672-318.464c6.144-2.731008 12.288-3.414016 18.432-2.048 6.144 1.364992 11.606016 4.436992 16.384 9.216 4.779008 4.777984 7.851008 10.24 9.216 16.384 1.366016 6.144 0.683008 12.288-2.048 18.432l-317.44 794.624c-2.729984 6.825984-7.337984 12.116992-13.824 15.872-6.484992 3.753984-13.481984 5.12-20.992 4.096-7.508992-1.024-13.824-4.096-18.944-9.216s-8.020992-11.435008-8.704-18.944l-50.176-393.216-400.384-54.272z" p-id="13166"></path></svg>