<?xml version="1.0" standalone="no"?><!DOCTYPE svg PUBLIC "-//W3C//DTD SVG 1.1//EN" "http://www.w3.org/Graphics/SVG/1.1/DTD/svg11.dtd"><svg t="1650521794443" class="icon" viewBox="0 0 1024 1024" version="1.1" xmlns="http://www.w3.org/2000/svg" p-id="8747" xmlns:xlink="http://www.w3.org/1999/xlink" width="128" height="128"><defs><style type="text/css">@font-face { font-family: feedback-iconfont; src: url("//at.alicdn.com/t/font_1031158_u69w8yhxdu.woff2?t=1630033759944") format("woff2"), url("//at.alicdn.com/t/font_1031158_u69w8yhxdu.woff?t=1630033759944") format("woff"), url("//at.alicdn.com/t/font_1031158_u69w8yhxdu.ttf?t=1630033759944") format("truetype"); }
</style></defs><path d="M479.086633 830.033983L911.303144 397.703189c1.942803-1.942803 2.857063-4.571301 2.628499-7.199799l-29.142044-344.447532c-0.799978-8.914037-7.771212-15.885271-16.685249-16.685249L523.656818 0.342848c-2.628498-0.228565-5.371279 0.685695-7.1998 2.628498L84.240507 435.187857a9.176887 9.176887 0 0 0 0 12.913926l381.9322 381.9322c3.542758 3.657041 9.371167 3.657041 12.913926 0z m71.540861-744.779219l256.678552 21.71368 21.71368 256.678552L472.572529 719.979911 194.180296 441.701961l356.447198-356.447197z m68.752367 212.828348a54.855612 54.855612 0 1 0 77.574978-77.586407 54.855612 54.855612 0 1 0-77.574978 77.586407zM943.645099 543.756257l-45.25588-45.141598a9.176887 9.176887 0 0 0-12.913925 0l-413.702743 412.902765-271.535281-270.849585a9.176887 9.176887 0 0 0-12.913925 0l-45.25588 45.141597a9.176887 9.176887 0 0 0 0 12.913926l277.935102 277.477972 45.25588 45.141597c3.542758 3.542758 9.371167 3.542758 12.913925 0l465.472727-464.672749c3.542758-3.542758 3.542758-9.371167 0-12.913925z" p-id="8748"></path></svg>