<?xml version="1.0" standalone="no"?><!DOCTYPE svg PUBLIC "-//W3C//DTD SVG 1.1//EN" "http://www.w3.org/Graphics/SVG/1.1/DTD/svg11.dtd"><svg t="1651841031009" class="icon" viewBox="0 0 1024 1024" version="1.1" xmlns="http://www.w3.org/2000/svg" p-id="8372" xmlns:xlink="http://www.w3.org/1999/xlink" width="128" height="128"><defs><style type="text/css">@font-face { font-family: feedback-iconfont; src: url("//at.alicdn.com/t/font_1031158_u69w8yhxdu.woff2?t=1630033759944") format("woff2"), url("//at.alicdn.com/t/font_1031158_u69w8yhxdu.woff?t=1630033759944") format("woff"), url("//at.alicdn.com/t/font_1031158_u69w8yhxdu.ttf?t=1630033759944") format("truetype"); }
</style></defs><path d="M422 684h360c19.882 0 36 16.118 36 36v140c0 19.882-16.118 36-36 36H422c-19.882 0-36-16.118-36-36V720c0-19.882 16.118-36 36-36z m36 72v68h288v-68H458zM242 128h360c19.882 0 36 16.118 36 36v140c0 19.882-16.118 36-36 36H242c-19.882 0-36-16.118-36-36V164c0-19.882 16.118-36 36-36z m36 72v68h288v-68H278z" p-id="8373"></path><path d="M178 476c-19.683 0-35.677 15.797-35.995 35.405L142 512v278c0 19.683 15.797 35.677 35.405 35.995L178 826h142c19.882 0 36-16.118 36-36 0-19.683-15.797-35.677-35.405-35.995L320 754H214V548h204.68c19.684 0 35.678-15.797 35.995-35.405l0.005-0.595c0-19.683-15.797-35.677-35.404-35.995l-0.596-0.005H178z m526-278c-19.882 0-36 16.118-36 36 0 19.683 15.797 35.677 35.405 35.995L704 270h106v206H603.037c-19.683 0-35.677 15.797-35.995 35.405l-0.005 0.595c0 19.683 15.797 35.677 35.405 35.995l0.595 0.005H846c19.683 0 35.677-15.797 35.995-35.405L882 512V234c0-19.683-15.797-35.677-35.405-35.995L846 198H704z" p-id="8374"></path><path d="M534.749 394.274l111 90c17.77 14.408 17.77 41.52 0 55.927l-111 90c-13.216 10.716-32.13 10.716-45.346 0l-111-90c-17.77-14.408-17.77-41.519 0-55.927l111-90c13.216-10.715 32.13-10.715 45.346 0z m-22.673 74.309l-53.839 43.654 53.839 43.654 53.84-43.654-53.84-43.654z" p-id="8375"></path></svg>